<mxfile host="app.diagrams.net" modified="2021-03-02T04:41:30.550Z" agent="5.0 (Windows NT 10.0; Win64; x64) AppleWebKit/537.36 (KHTML, like Gecko) Chrome/88.0.4324.190 Safari/537.36" etag="JRWkAzcntRfxneczZY0t" version="14.4.2" type="github">
  <diagram id="BV400SfRR3yTPrwJWLbE" name="Page-1">
    <mxGraphModel dx="1038" dy="586" grid="1" gridSize="10" guides="1" tooltips="1" connect="1" arrows="1" fold="1" page="1" pageScale="1" pageWidth="1300" pageHeight="500" math="0" shadow="0">
      <root>
        <mxCell id="0" />
        <mxCell id="1" parent="0" />
        <mxCell id="hbf811kXTVmbMMbKDcLm-1" value="Feature" style="shape=table;html=1;whiteSpace=wrap;startSize=30;container=1;collapsible=0;childLayout=tableLayout;fixedRows=1;rowLines=0;fontStyle=1;align=center;" vertex="1" parent="1">
          <mxGeometry x="60" y="80" width="180" height="160" as="geometry" />
        </mxCell>
        <mxCell id="hbf811kXTVmbMMbKDcLm-2" value="" style="shape=partialRectangle;html=1;whiteSpace=wrap;collapsible=0;dropTarget=0;pointerEvents=0;fillColor=none;top=0;left=0;bottom=1;right=0;points=[[0,0.5],[1,0.5]];portConstraint=eastwest;" vertex="1" parent="hbf811kXTVmbMMbKDcLm-1">
          <mxGeometry y="30" width="180" height="30" as="geometry" />
        </mxCell>
        <mxCell id="hbf811kXTVmbMMbKDcLm-3" value="&lt;b&gt;PK&lt;/b&gt;" style="shape=partialRectangle;html=1;whiteSpace=wrap;connectable=0;fillColor=none;top=0;left=0;bottom=0;right=0;overflow=hidden;" vertex="1" parent="hbf811kXTVmbMMbKDcLm-2">
          <mxGeometry width="40" height="30" as="geometry" />
        </mxCell>
        <mxCell id="hbf811kXTVmbMMbKDcLm-4" value="&lt;b&gt;feature_id&lt;/b&gt;" style="shape=partialRectangle;html=1;whiteSpace=wrap;connectable=0;fillColor=none;top=0;left=0;bottom=0;right=0;align=left;spacingLeft=6;overflow=hidden;" vertex="1" parent="hbf811kXTVmbMMbKDcLm-2">
          <mxGeometry x="40" width="140" height="30" as="geometry" />
        </mxCell>
        <mxCell id="hbf811kXTVmbMMbKDcLm-5" value="" style="shape=partialRectangle;html=1;whiteSpace=wrap;collapsible=0;dropTarget=0;pointerEvents=0;fillColor=none;top=0;left=0;bottom=0;right=0;points=[[0,0.5],[1,0.5]];portConstraint=eastwest;" vertex="1" parent="hbf811kXTVmbMMbKDcLm-1">
          <mxGeometry y="60" width="180" height="30" as="geometry" />
        </mxCell>
        <mxCell id="hbf811kXTVmbMMbKDcLm-6" value="" style="shape=partialRectangle;html=1;whiteSpace=wrap;connectable=0;fillColor=none;top=0;left=0;bottom=0;right=0;overflow=hidden;" vertex="1" parent="hbf811kXTVmbMMbKDcLm-5">
          <mxGeometry width="40" height="30" as="geometry" />
        </mxCell>
        <mxCell id="hbf811kXTVmbMMbKDcLm-7" value="feature_title" style="shape=partialRectangle;html=1;whiteSpace=wrap;connectable=0;fillColor=none;top=0;left=0;bottom=0;right=0;align=left;spacingLeft=6;overflow=hidden;" vertex="1" parent="hbf811kXTVmbMMbKDcLm-5">
          <mxGeometry x="40" width="140" height="30" as="geometry" />
        </mxCell>
        <mxCell id="hbf811kXTVmbMMbKDcLm-8" value="" style="shape=partialRectangle;html=1;whiteSpace=wrap;collapsible=0;dropTarget=0;pointerEvents=0;fillColor=none;top=0;left=0;bottom=0;right=0;points=[[0,0.5],[1,0.5]];portConstraint=eastwest;" vertex="1" parent="hbf811kXTVmbMMbKDcLm-1">
          <mxGeometry y="90" width="180" height="30" as="geometry" />
        </mxCell>
        <mxCell id="hbf811kXTVmbMMbKDcLm-9" value="" style="shape=partialRectangle;html=1;whiteSpace=wrap;connectable=0;fillColor=none;top=0;left=0;bottom=0;right=0;overflow=hidden;" vertex="1" parent="hbf811kXTVmbMMbKDcLm-8">
          <mxGeometry width="40" height="30" as="geometry" />
        </mxCell>
        <mxCell id="hbf811kXTVmbMMbKDcLm-10" value="feature_length" style="shape=partialRectangle;html=1;whiteSpace=wrap;connectable=0;fillColor=none;top=0;left=0;bottom=0;right=0;align=left;spacingLeft=6;overflow=hidden;" vertex="1" parent="hbf811kXTVmbMMbKDcLm-8">
          <mxGeometry x="40" width="140" height="30" as="geometry" />
        </mxCell>
        <mxCell id="hbf811kXTVmbMMbKDcLm-11" value="feature_rating" style="shape=partialRectangle;html=1;whiteSpace=wrap;connectable=0;fillColor=none;top=0;left=0;bottom=0;right=0;align=left;spacingLeft=6;overflow=hidden;" vertex="1" parent="1">
          <mxGeometry x="100" y="200" width="140" height="30" as="geometry" />
        </mxCell>
        <mxCell id="hbf811kXTVmbMMbKDcLm-13" value="FeatureVersion" style="shape=table;html=1;whiteSpace=wrap;startSize=30;container=1;collapsible=0;childLayout=tableLayout;fixedRows=1;rowLines=0;fontStyle=1;align=center;" vertex="1" parent="1">
          <mxGeometry x="280" y="80" width="180" height="130" as="geometry" />
        </mxCell>
        <mxCell id="hbf811kXTVmbMMbKDcLm-14" value="" style="shape=partialRectangle;html=1;whiteSpace=wrap;collapsible=0;dropTarget=0;pointerEvents=0;fillColor=none;top=0;left=0;bottom=1;right=0;points=[[0,0.5],[1,0.5]];portConstraint=eastwest;" vertex="1" parent="hbf811kXTVmbMMbKDcLm-13">
          <mxGeometry y="30" width="180" height="30" as="geometry" />
        </mxCell>
        <mxCell id="hbf811kXTVmbMMbKDcLm-15" value="&lt;b&gt;PK&lt;/b&gt;" style="shape=partialRectangle;html=1;whiteSpace=wrap;connectable=0;fillColor=none;top=0;left=0;bottom=0;right=0;overflow=hidden;" vertex="1" parent="hbf811kXTVmbMMbKDcLm-14">
          <mxGeometry width="40" height="30" as="geometry" />
        </mxCell>
        <mxCell id="hbf811kXTVmbMMbKDcLm-16" value="&lt;b&gt;version_fea_id&lt;/b&gt;" style="shape=partialRectangle;html=1;whiteSpace=wrap;connectable=0;fillColor=none;top=0;left=0;bottom=0;right=0;align=left;spacingLeft=6;overflow=hidden;" vertex="1" parent="hbf811kXTVmbMMbKDcLm-14">
          <mxGeometry x="40" width="140" height="30" as="geometry" />
        </mxCell>
        <mxCell id="hbf811kXTVmbMMbKDcLm-17" value="" style="shape=partialRectangle;html=1;whiteSpace=wrap;collapsible=0;dropTarget=0;pointerEvents=0;fillColor=none;top=0;left=0;bottom=0;right=0;points=[[0,0.5],[1,0.5]];portConstraint=eastwest;" vertex="1" parent="hbf811kXTVmbMMbKDcLm-13">
          <mxGeometry y="60" width="180" height="30" as="geometry" />
        </mxCell>
        <mxCell id="hbf811kXTVmbMMbKDcLm-18" value="FK" style="shape=partialRectangle;html=1;whiteSpace=wrap;connectable=0;fillColor=none;top=0;left=0;bottom=0;right=0;overflow=hidden;" vertex="1" parent="hbf811kXTVmbMMbKDcLm-17">
          <mxGeometry width="40" height="30" as="geometry" />
        </mxCell>
        <mxCell id="hbf811kXTVmbMMbKDcLm-19" value="feature_id" style="shape=partialRectangle;html=1;whiteSpace=wrap;connectable=0;fillColor=none;top=0;left=0;bottom=0;right=0;align=left;spacingLeft=6;overflow=hidden;" vertex="1" parent="hbf811kXTVmbMMbKDcLm-17">
          <mxGeometry x="40" width="140" height="30" as="geometry" />
        </mxCell>
        <mxCell id="hbf811kXTVmbMMbKDcLm-20" value="" style="shape=partialRectangle;html=1;whiteSpace=wrap;collapsible=0;dropTarget=0;pointerEvents=0;fillColor=none;top=0;left=0;bottom=0;right=0;points=[[0,0.5],[1,0.5]];portConstraint=eastwest;" vertex="1" parent="hbf811kXTVmbMMbKDcLm-13">
          <mxGeometry y="90" width="180" height="30" as="geometry" />
        </mxCell>
        <mxCell id="hbf811kXTVmbMMbKDcLm-21" value="" style="shape=partialRectangle;html=1;whiteSpace=wrap;connectable=0;fillColor=none;top=0;left=0;bottom=0;right=0;overflow=hidden;" vertex="1" parent="hbf811kXTVmbMMbKDcLm-20">
          <mxGeometry width="40" height="30" as="geometry" />
        </mxCell>
        <mxCell id="hbf811kXTVmbMMbKDcLm-22" value="version_name" style="shape=partialRectangle;html=1;whiteSpace=wrap;connectable=0;fillColor=none;top=0;left=0;bottom=0;right=0;align=left;spacingLeft=6;overflow=hidden;" vertex="1" parent="hbf811kXTVmbMMbKDcLm-20">
          <mxGeometry x="40" width="140" height="30" as="geometry" />
        </mxCell>
        <mxCell id="hbf811kXTVmbMMbKDcLm-24" value="TrailerSchedule" style="shape=table;html=1;whiteSpace=wrap;startSize=30;container=1;collapsible=0;childLayout=tableLayout;fixedRows=1;rowLines=0;fontStyle=1;align=center;" vertex="1" parent="1">
          <mxGeometry x="500" y="80" width="180" height="150" as="geometry" />
        </mxCell>
        <mxCell id="hbf811kXTVmbMMbKDcLm-25" value="" style="shape=partialRectangle;html=1;whiteSpace=wrap;collapsible=0;dropTarget=0;pointerEvents=0;fillColor=none;top=0;left=0;bottom=1;right=0;points=[[0,0.5],[1,0.5]];portConstraint=eastwest;" vertex="1" parent="hbf811kXTVmbMMbKDcLm-24">
          <mxGeometry y="30" width="180" height="30" as="geometry" />
        </mxCell>
        <mxCell id="hbf811kXTVmbMMbKDcLm-26" value="&lt;b&gt;PK&lt;/b&gt;" style="shape=partialRectangle;html=1;whiteSpace=wrap;connectable=0;fillColor=none;top=0;left=0;bottom=0;right=0;overflow=hidden;" vertex="1" parent="hbf811kXTVmbMMbKDcLm-25">
          <mxGeometry width="40" height="30" as="geometry" />
        </mxCell>
        <mxCell id="hbf811kXTVmbMMbKDcLm-27" value="&lt;b&gt;trailer_assigned_id&lt;/b&gt;" style="shape=partialRectangle;html=1;whiteSpace=wrap;connectable=0;fillColor=none;top=0;left=0;bottom=0;right=0;align=left;spacingLeft=6;overflow=hidden;" vertex="1" parent="hbf811kXTVmbMMbKDcLm-25">
          <mxGeometry x="40" width="140" height="30" as="geometry" />
        </mxCell>
        <mxCell id="hbf811kXTVmbMMbKDcLm-28" value="" style="shape=partialRectangle;html=1;whiteSpace=wrap;collapsible=0;dropTarget=0;pointerEvents=0;fillColor=none;top=0;left=0;bottom=0;right=0;points=[[0,0.5],[1,0.5]];portConstraint=eastwest;" vertex="1" parent="hbf811kXTVmbMMbKDcLm-24">
          <mxGeometry y="60" width="180" height="30" as="geometry" />
        </mxCell>
        <mxCell id="hbf811kXTVmbMMbKDcLm-29" value="FK" style="shape=partialRectangle;html=1;whiteSpace=wrap;connectable=0;fillColor=none;top=0;left=0;bottom=0;right=0;overflow=hidden;" vertex="1" parent="hbf811kXTVmbMMbKDcLm-28">
          <mxGeometry width="40" height="30" as="geometry" />
        </mxCell>
        <mxCell id="hbf811kXTVmbMMbKDcLm-30" value="version_fea_id" style="shape=partialRectangle;html=1;whiteSpace=wrap;connectable=0;fillColor=none;top=0;left=0;bottom=0;right=0;align=left;spacingLeft=6;overflow=hidden;" vertex="1" parent="hbf811kXTVmbMMbKDcLm-28">
          <mxGeometry x="40" width="140" height="30" as="geometry" />
        </mxCell>
        <mxCell id="hbf811kXTVmbMMbKDcLm-31" value="" style="shape=partialRectangle;html=1;whiteSpace=wrap;collapsible=0;dropTarget=0;pointerEvents=0;fillColor=none;top=0;left=0;bottom=0;right=0;points=[[0,0.5],[1,0.5]];portConstraint=eastwest;" vertex="1" parent="hbf811kXTVmbMMbKDcLm-24">
          <mxGeometry y="90" width="180" height="30" as="geometry" />
        </mxCell>
        <mxCell id="hbf811kXTVmbMMbKDcLm-32" value="FK" style="shape=partialRectangle;html=1;whiteSpace=wrap;connectable=0;fillColor=none;top=0;left=0;bottom=0;right=0;overflow=hidden;" vertex="1" parent="hbf811kXTVmbMMbKDcLm-31">
          <mxGeometry width="40" height="30" as="geometry" />
        </mxCell>
        <mxCell id="hbf811kXTVmbMMbKDcLm-33" value="trailer_id" style="shape=partialRectangle;html=1;whiteSpace=wrap;connectable=0;fillColor=none;top=0;left=0;bottom=0;right=0;align=left;spacingLeft=6;overflow=hidden;" vertex="1" parent="hbf811kXTVmbMMbKDcLm-31">
          <mxGeometry x="40" width="140" height="30" as="geometry" />
        </mxCell>
        <mxCell id="hbf811kXTVmbMMbKDcLm-34" value="Trailers" style="shape=table;html=1;whiteSpace=wrap;startSize=30;container=1;collapsible=0;childLayout=tableLayout;fixedRows=1;rowLines=0;fontStyle=1;align=center;" vertex="1" parent="1">
          <mxGeometry x="720" y="80" width="180" height="150" as="geometry" />
        </mxCell>
        <mxCell id="hbf811kXTVmbMMbKDcLm-35" value="" style="shape=partialRectangle;html=1;whiteSpace=wrap;collapsible=0;dropTarget=0;pointerEvents=0;fillColor=none;top=0;left=0;bottom=1;right=0;points=[[0,0.5],[1,0.5]];portConstraint=eastwest;" vertex="1" parent="hbf811kXTVmbMMbKDcLm-34">
          <mxGeometry y="30" width="180" height="30" as="geometry" />
        </mxCell>
        <mxCell id="hbf811kXTVmbMMbKDcLm-36" value="&lt;b&gt;PK&lt;/b&gt;" style="shape=partialRectangle;html=1;whiteSpace=wrap;connectable=0;fillColor=none;top=0;left=0;bottom=0;right=0;overflow=hidden;" vertex="1" parent="hbf811kXTVmbMMbKDcLm-35">
          <mxGeometry width="40" height="30" as="geometry" />
        </mxCell>
        <mxCell id="hbf811kXTVmbMMbKDcLm-37" value="trailer_id" style="shape=partialRectangle;html=1;whiteSpace=wrap;connectable=0;fillColor=none;top=0;left=0;bottom=0;right=0;align=left;spacingLeft=6;overflow=hidden;fontStyle=1" vertex="1" parent="hbf811kXTVmbMMbKDcLm-35">
          <mxGeometry x="40" width="140" height="30" as="geometry" />
        </mxCell>
        <mxCell id="hbf811kXTVmbMMbKDcLm-38" value="" style="shape=partialRectangle;html=1;whiteSpace=wrap;collapsible=0;dropTarget=0;pointerEvents=0;fillColor=none;top=0;left=0;bottom=0;right=0;points=[[0,0.5],[1,0.5]];portConstraint=eastwest;" vertex="1" parent="hbf811kXTVmbMMbKDcLm-34">
          <mxGeometry y="60" width="180" height="30" as="geometry" />
        </mxCell>
        <mxCell id="hbf811kXTVmbMMbKDcLm-39" value="" style="shape=partialRectangle;html=1;whiteSpace=wrap;connectable=0;fillColor=none;top=0;left=0;bottom=0;right=0;overflow=hidden;" vertex="1" parent="hbf811kXTVmbMMbKDcLm-38">
          <mxGeometry width="40" height="30" as="geometry" />
        </mxCell>
        <mxCell id="hbf811kXTVmbMMbKDcLm-40" value="trailer_title" style="shape=partialRectangle;html=1;whiteSpace=wrap;connectable=0;fillColor=none;top=0;left=0;bottom=0;right=0;align=left;spacingLeft=6;overflow=hidden;" vertex="1" parent="hbf811kXTVmbMMbKDcLm-38">
          <mxGeometry x="40" width="140" height="30" as="geometry" />
        </mxCell>
        <mxCell id="hbf811kXTVmbMMbKDcLm-41" value="" style="shape=partialRectangle;html=1;whiteSpace=wrap;collapsible=0;dropTarget=0;pointerEvents=0;fillColor=none;top=0;left=0;bottom=0;right=0;points=[[0,0.5],[1,0.5]];portConstraint=eastwest;" vertex="1" parent="hbf811kXTVmbMMbKDcLm-34">
          <mxGeometry y="90" width="180" height="30" as="geometry" />
        </mxCell>
        <mxCell id="hbf811kXTVmbMMbKDcLm-42" value="" style="shape=partialRectangle;html=1;whiteSpace=wrap;connectable=0;fillColor=none;top=0;left=0;bottom=0;right=0;overflow=hidden;" vertex="1" parent="hbf811kXTVmbMMbKDcLm-41">
          <mxGeometry width="40" height="30" as="geometry" />
        </mxCell>
        <mxCell id="hbf811kXTVmbMMbKDcLm-43" value="trailer_length" style="shape=partialRectangle;html=1;whiteSpace=wrap;connectable=0;fillColor=none;top=0;left=0;bottom=0;right=0;align=left;spacingLeft=6;overflow=hidden;" vertex="1" parent="hbf811kXTVmbMMbKDcLm-41">
          <mxGeometry x="40" width="140" height="30" as="geometry" />
        </mxCell>
        <mxCell id="hbf811kXTVmbMMbKDcLm-44" value="trailer_order" style="shape=partialRectangle;html=1;whiteSpace=wrap;connectable=0;fillColor=none;top=0;left=0;bottom=0;right=0;align=left;spacingLeft=6;overflow=hidden;" vertex="1" parent="1">
          <mxGeometry x="540" y="200" width="140" height="30" as="geometry" />
        </mxCell>
        <mxCell id="hbf811kXTVmbMMbKDcLm-45" style="edgeStyle=orthogonalEdgeStyle;rounded=0;orthogonalLoop=1;jettySize=auto;html=1;exitX=1;exitY=0.5;exitDx=0;exitDy=0;entryX=0;entryY=0.5;entryDx=0;entryDy=0;" edge="1" parent="1" source="hbf811kXTVmbMMbKDcLm-2" target="hbf811kXTVmbMMbKDcLm-14">
          <mxGeometry relative="1" as="geometry" />
        </mxCell>
        <mxCell id="hbf811kXTVmbMMbKDcLm-46" style="edgeStyle=orthogonalEdgeStyle;rounded=0;orthogonalLoop=1;jettySize=auto;html=1;exitX=1;exitY=0.5;exitDx=0;exitDy=0;entryX=0;entryY=0.5;entryDx=0;entryDy=0;" edge="1" parent="1" source="hbf811kXTVmbMMbKDcLm-14" target="hbf811kXTVmbMMbKDcLm-28">
          <mxGeometry relative="1" as="geometry" />
        </mxCell>
        <mxCell id="hbf811kXTVmbMMbKDcLm-47" style="edgeStyle=orthogonalEdgeStyle;rounded=0;orthogonalLoop=1;jettySize=auto;html=1;exitX=1;exitY=0.5;exitDx=0;exitDy=0;entryX=0;entryY=0.5;entryDx=0;entryDy=0;" edge="1" parent="1" source="hbf811kXTVmbMMbKDcLm-31" target="hbf811kXTVmbMMbKDcLm-35">
          <mxGeometry relative="1" as="geometry" />
        </mxCell>
      </root>
    </mxGraphModel>
  </diagram>
</mxfile>
